<?xml version="1.0" encoding="utf-8"?>
<!-- Generator: Adobe Illustrator 18.1.1, SVG Export Plug-In . SVG Version: 6.00 Build 0)  -->
<svg version="1.1" id="Layer_1" xmlns="http://www.w3.org/2000/svg" xmlns:xlink="http://www.w3.org/1999/xlink" x="0px" y="0px"
	 viewBox="0 0 625.4 95.8" enable-background="new 0 0 625.4 95.8" xml:space="preserve">
<g>
	<g>
		<g>
			<path fill="#FFFFFF" d="M136.8,71.8c-16.9,0-23.1-10-23.1-25.4c0-13.3,5.5-25,23.3-25c4.1,0,9.5,0.8,13.2,2l-3.4,9.4
				c-3.1-1.3-6.2-2.7-9.8-2.7c-8.3,0-11.7,5.2-11.7,16.3c0,11.8,3.1,16.8,11.2,16.8c4.1,0,6.9-1.6,10.7-3.1l3.4,9.4
				C146.5,70.9,142.6,71.8,136.8,71.8"/>
			<path fill="#FFFFFF" d="M170.3,43.1c-4.4,0-7.3,1.9-7.3,10.1c0,7.4,2.7,10.5,7.3,10.5c3.9,0,7.2-2.3,7.2-10.5
				C177.5,45,175,43.1,170.3,43.1 M170.3,71.4c-12.7,0-17.6-8.4-17.6-18.2c0-9.4,5-17.8,17.6-17.8c12.8,0,17.5,8,17.5,17.8
				C187.8,62.9,182.9,71.4,170.3,71.4"/>
			<path fill="#FFFFFF" d="M234.4,70.3V48.9c0-5-1.5-5.8-3.5-5.8c-3.8,0-6.2,3.7-7.5,7.1v20.1h-10.1V48.9c0-5.3-1.1-5.8-4.1-5.8
				c-3.2,0-5.6,5-6.5,6.7v20.6h-10.1V44.3c0-2.8-0.7-5.3-1-7.8h9.4l1.4,4.2c1-1.5,5-5.3,8.8-5.3c5.8,0,7.5,0.7,11,4.8
				c1.9-3.1,5.5-4.8,10.4-4.8c8.1,0,12,4.3,12,13.3v21.6H234.4z"/>
			<path fill="#FFFFFF" d="M292.9,70.3V48.9c0-5-1.5-5.8-3.5-5.8c-3.8,0-6.2,3.7-7.5,7.1v20.1h-10.1V48.9c0-5.3-1.1-5.8-4.1-5.8
				c-3.2,0-5.6,5-6.5,6.7v20.6h-10.1V44.3c0-2.8-0.7-5.3-1-7.8h9.4l1.4,4.2c1-1.5,5-5.3,8.8-5.3c5.8,0,7.5,0.7,11,4.8
				c1.9-3.1,5.5-4.8,10.4-4.8c8.1,0,12,4.3,12,13.3v21.6H292.9z"/>
			<path fill="#FFFFFF" d="M324.7,43.2c-1.5,0-6,0.4-6.2,7h13C331,44.7,328.1,43.2,324.7,43.2 M318.5,57.8c0.9,4.5,3.8,6.1,7.3,6.1
				c3,0,6.9-1.1,10.4-2.9l3.3,7.7c-4.1,1.9-9.5,2.7-14.4,2.7c-11.3,0-17.3-8.2-17.3-17.6c0-7.8,3.6-18.3,16.8-18.3
				c12.9,0,17,6.8,17,22.3H318.5z"/>
			<path fill="#FFFFFF" d="M367.1,44.5c-1.3-1.1-2.5-1.4-4.2-1.4c-3.7,0-5.4,5.3-6.1,7.2v20.1h-10.1V44.1c0-3.3-0.7-5.8-1-7.5h9.4
				l1.5,4.7c1.2-2,4-5.8,7.4-5.8c3,0,5.1,0.4,6.6,0.9L367.1,44.5z"/>
			<path fill="#FFFFFF" d="M388.3,71.4c-11.5,0-17.6-7.3-17.6-17.7c0-11,6-18.2,17.8-18.2c3,0,9.2,1.5,11.7,2.4l-3.5,8.3
				c-2.5-1.3-5.8-3-8.3-3c-4.7,0-7.4,1.8-7.4,10.4c0,7.9,3.5,9.9,7.3,9.9c2.3,0,5.8-1.5,8.7-3l3.5,8.3
				C398,70.2,390.9,71.4,388.3,71.4"/>
			<path fill="#FFFFFF" d="M419,43.2c-1.5,0-6,0.4-6.2,7h13C425.3,44.7,422.3,43.2,419,43.2 M412.7,57.8c0.9,4.5,3.8,6.1,7.3,6.1
				c3,0,6.9-1.1,10.4-2.9l3.3,7.7c-4.1,1.9-9.5,2.7-14.4,2.7c-11.3,0-17.3-8.2-17.3-17.6c0-7.8,3.6-18.3,16.8-18.3
				c12.9,0,17,6.8,17,22.3H412.7z"/>
			<path fill="#FFFFFF" d="M477.7,50h-8.8v11.7h9.6c2.3,0,4.9-1.6,4.9-5.5C483.4,51.8,480.9,50,477.7,50 M476.5,31.1h-7.6v10.3h8.7
				c2.3,0,3.7-2,3.7-5.4C481.2,34.5,480.6,31.1,476.5,31.1 M478.9,70.3h-21.3V22.5h18.9c8.7,0,16.1,3.2,16.1,13.5
				c0,5-3.3,8.2-7.6,9.3c5.9,0.6,9.8,4.1,9.8,10.9C494.9,67.1,487.2,70.3,478.9,70.3"/>
			<path fill="#FFFFFF" d="M520.6,56H519c-6.7,0-9.3,1.7-9.3,5c0,2.4,3,2.6,5.2,2.6c2.1,0,4.5-2.3,5.8-3.7V56z M522.5,70.3
				c-0.1,0-1.3-3.3-1.3-3.1c-1.9,1.5-5,4.1-8.4,4.1c-9.5,0-13.6-3.6-13.6-9.9c0-6.9,4.4-12.7,18.8-12.7h2.6v-1.1
				c0-1.6,0-4.4-3.8-4.4c-4.7,0-9.5,1.4-12.8,3l-3.5-8.3c5-1.7,11.5-2.4,16.9-2.4c7.8,0,13.4,3.4,13.4,10.8V60c0,2.7,1,6.7,1.5,10.4
				H522.5z"/>
			<path fill="#FFFFFF" d="M558.7,70.3v-22c0-2.4,0-5.3-4.1-5.3c-3,0-5,3.5-6.7,6.7v20.5h-10.1V43.7c0-2.8-0.6-5-1-7.2h9.4l1.5,4.1
				c1.5-1.4,4.4-5.3,8.8-5.3c10.4,0,12.4,5.8,12.4,13.6v21.3H558.7z"/>
			<polygon fill="#FFFFFF" points="596,70.3 585.4,53.8 585.4,70.3 575.3,70.3 575.3,21.7 585.4,21.7 585.4,49.5 594.9,36.5 
				605.8,36.5 595,51.2 607.6,70.3 			"/>
			<g>
				<polygon fill="#FFFFFF" points="523.8,87.6 523.8,78.1 520.2,87.6 518.6,87.6 515.1,78.1 515.1,87.6 513.4,87.6 513.4,76.2 
					516.2,76.2 519.5,85.2 522.8,76.2 525.5,76.2 525.5,87.6 				"/>
				<g>
					<path fill="#FFFFFF" d="M531,80.6c-0.9,0-1.8,0.7-1.9,2.4h4C533,81.3,532.2,80.6,531,80.6 M529,84.2c0.1,1.5,0.7,2.4,2.1,2.4
						c0.8,0,1.6-0.3,2.4-0.7l0.5,1.2c-0.9,0.4-2,0.6-3.1,0.6c-2.5,0-3.6-1.9-3.6-4.1c0-1.9,0.8-4.3,3.6-4.3c2.8,0,3.6,1.8,3.6,4.8
						H529z"/>
					<path fill="#FFFFFF" d="M545.9,87.6v-5.1c0-1.2-0.3-1.9-1.5-1.9c-1,0-1.7,0.9-2,1.7v5.3h-1.6v-5.1c0-1.4-0.5-1.9-1.5-1.9
						c-0.9,0-1.6,1-1.9,1.6v5.4H536v-6.2c0-0.7-0.1-1.2-0.2-1.8h1.4l0.3,1.1c0.3-0.5,1.1-1.4,2.2-1.4c1.4,0,2,0.5,2.5,1.5
						c0.5-0.7,1.3-1.5,2.4-1.5c1.9,0,2.8,1,2.8,3.1v5.1H545.9z"/>
					<path fill="#FFFFFF" d="M552.8,80.6c-1.1,0-1.6,1-2,1.6v3.2c0.3,0.7,1,1.2,1.7,1.2c1.3,0,2.1-0.9,2.1-3
						C554.6,81.3,553.8,80.6,552.8,80.6 M552.8,87.8c-1,0-1.7-0.6-2-1.1l-0.3,0.9h-1.4c0.1-1,0.2-1.4,0.2-2.5v-9h1.6v4.6
						c0.4-0.6,1.1-1.3,2.2-1.3c2.4,0,3.3,1.9,3.3,4.2C556.3,85.8,555.2,87.8,552.8,87.8"/>
					<path fill="#FFFFFF" d="M561,80.6c-0.9,0-1.8,0.7-1.9,2.4h4C563,81.3,562.2,80.6,561,80.6 M559,84.2c0.1,1.5,0.7,2.4,2.1,2.4
						c0.8,0,1.6-0.3,2.4-0.7l0.5,1.2c-0.9,0.4-2,0.6-3.1,0.6c-2.5,0-3.6-1.9-3.6-4.1c0-1.9,0.8-4.3,3.6-4.3c2.8,0,3.6,1.8,3.6,4.8
						H559z"/>
					<path fill="#FFFFFF" d="M570.3,81.1c-0.3-0.2-0.7-0.5-1.2-0.5c-1,0-1.3,1.4-1.6,1.9v5.1H566v-6.2c0-0.8-0.1-1.4-0.2-1.8h1.4
						l0.3,1.4c0.3-0.5,1-1.6,1.9-1.6c0.6,0,1,0.1,1.5,0.4L570.3,81.1z"/>
				</g>
				<polygon fill="#FFFFFF" points="578.2,77.6 578.2,81.1 582.7,81.1 582.7,82.4 578.2,82.4 578.2,87.6 576.4,87.6 576.4,76.2 
					582.9,76.2 582.9,77.6 				"/>
				<g>
					<path fill="#FFFFFF" d="M588.1,77.6h-1.5v8.6h1.6c2.2,0,3.4-1,3.4-4.3C591.7,78.3,590.4,77.6,588.1,77.6 M588.1,87.6h-3.2V76.2
						h3.2c3.8,0,5.4,1.5,5.4,5.6C593.5,86,591.8,87.6,588.1,87.6"/>
				</g>
				<rect x="595.6" y="76.2" fill="#FFFFFF" width="1.8" height="11.3"/>
				<g>
					<path fill="#FFFFFF" d="M604.4,87.9c-3.6,0-5-2.5-5-6c0-3.2,1.2-5.9,5.1-5.9c1,0,2,0.2,2.9,0.4l-0.6,1.5
						c-0.7-0.3-1.5-0.6-2.3-0.6c-2.5,0-3.3,1.9-3.3,4.5c0,2.8,0.8,4.6,3.2,4.6c0.9,0,1.6-0.3,2.5-0.7l0.6,1.5
						C606.5,87.7,605.6,87.9,604.4,87.9"/>
				</g>
			</g>
		</g>
		<g>
			<path fill="#FFFFFF" d="M74.4,14.5c3.1-2,4.5-3.9,4.1-5.3C72,4.5,64.3,1.5,56.2,0.4C61.9,2.8,68.5,7.2,74.4,14.5z"/>
			<path fill="#FFFFFF" d="M60.8,50.1c9.6-2.3,16.8-4.7,22.2-7.1c-2.1-9.6-5.6-17.3-9.7-23.5c-4.3,2.6-10.4,5-18.4,7
				C57,33.1,58.8,40,60,45.9C60.3,47.3,60.5,48.7,60.8,50.1z"/>
			<path fill="#FFFFFF" d="M83.8,47.8c-7.4,3.5-16,6.1-22.2,7.6c1.1,7.7,1.9,16,1.8,23.2c7.5-1.9,13.8-4.4,18.9-7
				C84.4,65.2,85.2,57.3,83.8,47.8z"/>
			<path fill="#FFFFFF" d="M25.5,52.5c0.2,0.8,0.4,1.6,0.5,2.4c8.5-0.3,18.5-1.3,29.2-3.5c-0.3-1.4-0.5-2.8-0.8-4.3
				c-1.5-7.3-3.1-13.8-4.8-19.4c-8.2,1.6-18,2.1-26.2,1.5C23.3,36.2,23.8,44.1,25.5,52.5z"/>
			<path fill="#FFFFFF" d="M97.3,38C97.3,38,97.3,38,97.3,38L97.3,38C97.3,38,97.3,38,97.3,38c-1.9,2.9-5.5,5.6-9.9,7.9
				c1.4,9.1,0.7,17-1.1,23.5c4.9-2.9,8.1-5.7,9.6-7.6C98.4,54.4,99,46.3,97.3,38z"/>
			<path fill="#FFFFFF" d="M81,11.1c-0.4,2-1.9,4.1-4.5,6.2c4.3,6.1,7.9,14,10,24.1c5.6-2.9,8.6-5.5,9.8-7.3
				C93.6,24.8,88.1,16.9,81,11.1z"/>
			<path fill="#FFFFFF" d="M23.7,25.2c7,0.2,15.6-0.3,24.6-2C44,9.9,39.7,2.4,37.7,1.4c-3.3,0.8-6.4,1.9-9.4,3.3
				C26.4,8.1,24.3,15.5,23.7,25.2z"/>
			<path fill="#FFFFFF" d="M33.1,86.1c-7.6-0.5-14.1-1.8-18.2-3.6c7.2,6.7,16.4,11.2,26.4,12.7C38.6,93.2,35.8,90,33.1,86.1z"/>
			<path fill="#FFFFFF" d="M56.2,56.6c-4.5,0.7-16.7,2.5-29,2.9c2.5,8.8,5.8,16.5,9.2,22.6c6.8-0.1,14.5-0.8,22.2-2.3
				C58.5,73.6,57.7,65.8,56.2,56.6z"/>
			<path fill="#FFFFFF" d="M80,77.7c-4.7,2.3-10.3,4.4-16.8,6c-0.3,4.4-1.1,8.2-2.5,10.6c3.4-0.8,6.6-2,9.7-3.5
				C73.7,87.8,77.3,83.4,80,77.7z"/>
			<path fill="#FFFFFF" d="M58.7,84.6C52,85.9,45.3,86.4,39,86.4c2.8,4.4,5.6,7.7,7.6,9.4c3.5,0.1,7.1-0.1,10.7-0.7
				C58.1,93.6,58.6,90,58.7,84.6z"/>
			<path fill="#FFFFFF" d="M53.4,22.1c7.6-1.7,13.4-3.8,17.6-5.8C63.9,7.3,55.8,2.2,50.4,0c-3.2,0-6.4,0.2-9.6,0.8
				C45.4,3.5,49.8,12.1,53.4,22.1z"/>
			<path fill="#FFFFFF" d="M84.3,75.4c-1.9,4.5-4.3,8.3-6.9,11.4c6.7-4.7,12.1-10.9,15.7-18C90.8,71,87.9,73.3,84.3,75.4z"/>
			<path fill="#FFFFFF" d="M19.7,53.8c-1.8-8.9-2.2-17.5-1.5-25.1c-5.6-0.8-9.9-2.1-11.8-4c-4.8,8.3-7.2,17.9-6.3,27.9
				C2,53.7,9.3,54.9,20,55C19.9,54.6,19.8,54.2,19.7,53.8z"/>
			<path fill="#FFFFFF" d="M8.4,21.6c0.4,1.5,4.3,2.7,10.2,3.3c1-7.7,3.1-14,5.7-18.1C17.9,10.6,12.5,15.7,8.4,21.6z"/>
			<path fill="#FFFFFF" d="M21.1,59.5c-8-0.1-15.5-0.9-20.4-3.2c0.1,0.5,0.2,0.9,0.2,1.4C2.6,66,6.4,73.3,11.7,79.3
				c2.2,1.2,9.3,2.5,18.8,2.8C26.7,75.9,23.4,68.2,21.1,59.5z"/>
		</g>
	</g>
	<g>
		<path fill="#FFFFFF" d="M616,22h-2.4v8h-1v-8h-2.4v-0.9h5.9L616,22z"/>
		<path fill="#FFFFFF" d="M624.3,30.1l-0.5-6.5c0-0.6-0.1-1.5-0.1-1.5c0,0.1-0.2,0.8-0.4,1.4l-1.9,6.7h-0.9l-1.8-6.3
			c-0.2-0.9-0.4-1.5-0.4-1.7c0,0.1-0.1,1.2-0.1,1.7l-0.5,6.3h-1l0.8-8.9h1.6l1.6,5.8c0.2,0.8,0.3,1.5,0.4,1.5c0-0.1,0.1-0.7,0.3-1.4
			l1.7-5.9h1.6l0.8,8.9H624.3z"/>
	</g>
</g>
</svg>
